<mxfile host="app.diagrams.net" modified="2024-02-12T17:42:14.439Z" agent="Mozilla/5.0 (X11; Linux x86_64) AppleWebKit/537.36 (KHTML, like Gecko) Chrome/115.0.0.0 Safari/537.36" etag="fd6_q0LiIAN2_R8cHhmE" version="23.1.2" type="github">
  <diagram name="Page-1" id="I-WNcaMmzMYaS5naf0j3">
    <mxGraphModel dx="2284" dy="733" grid="1" gridSize="10" guides="1" tooltips="1" connect="1" arrows="1" fold="1" page="1" pageScale="1" pageWidth="850" pageHeight="1100" math="0" shadow="0">
      <root>
        <mxCell id="0" />
        <mxCell id="1" parent="0" />
        <mxCell id="BWkdJpZ7-nc9CG0MHuAF-14" style="edgeStyle=orthogonalEdgeStyle;rounded=0;orthogonalLoop=1;jettySize=auto;html=1;exitX=0.5;exitY=1;exitDx=0;exitDy=0;" edge="1" parent="1" source="BWkdJpZ7-nc9CG0MHuAF-12" target="BWkdJpZ7-nc9CG0MHuAF-13">
          <mxGeometry relative="1" as="geometry" />
        </mxCell>
        <mxCell id="BWkdJpZ7-nc9CG0MHuAF-17" style="edgeStyle=orthogonalEdgeStyle;rounded=0;orthogonalLoop=1;jettySize=auto;html=1;exitX=0.5;exitY=1;exitDx=0;exitDy=0;entryX=0.5;entryY=0;entryDx=0;entryDy=0;" edge="1" parent="1" source="BWkdJpZ7-nc9CG0MHuAF-12" target="BWkdJpZ7-nc9CG0MHuAF-16">
          <mxGeometry relative="1" as="geometry" />
        </mxCell>
        <mxCell id="BWkdJpZ7-nc9CG0MHuAF-12" value="COMMANDE D&#39;ENTREE" style="rounded=0;whiteSpace=wrap;html=1;" vertex="1" parent="1">
          <mxGeometry x="250" y="50" width="220" height="60" as="geometry" />
        </mxCell>
        <mxCell id="BWkdJpZ7-nc9CG0MHuAF-20" style="edgeStyle=orthogonalEdgeStyle;rounded=0;orthogonalLoop=1;jettySize=auto;html=1;exitX=0.5;exitY=1;exitDx=0;exitDy=0;entryX=0.5;entryY=0;entryDx=0;entryDy=0;" edge="1" parent="1" source="BWkdJpZ7-nc9CG0MHuAF-13" target="BWkdJpZ7-nc9CG0MHuAF-15">
          <mxGeometry relative="1" as="geometry" />
        </mxCell>
        <mxCell id="BWkdJpZ7-nc9CG0MHuAF-21" value="&lt;font color=&quot;#ff0000&quot;&gt;Comande non valide&lt;/font&gt;" style="edgeLabel;html=1;align=center;verticalAlign=middle;resizable=0;points=[];" vertex="1" connectable="0" parent="BWkdJpZ7-nc9CG0MHuAF-20">
          <mxGeometry x="-0.0966" y="-1" relative="1" as="geometry">
            <mxPoint as="offset" />
          </mxGeometry>
        </mxCell>
        <mxCell id="BWkdJpZ7-nc9CG0MHuAF-24" style="edgeStyle=orthogonalEdgeStyle;rounded=0;orthogonalLoop=1;jettySize=auto;html=1;exitX=0.5;exitY=1;exitDx=0;exitDy=0;entryX=0.5;entryY=0;entryDx=0;entryDy=0;" edge="1" parent="1" source="BWkdJpZ7-nc9CG0MHuAF-13" target="BWkdJpZ7-nc9CG0MHuAF-23">
          <mxGeometry relative="1" as="geometry" />
        </mxCell>
        <mxCell id="BWkdJpZ7-nc9CG0MHuAF-25" value="&lt;font color=&quot;#00ff2a&quot;&gt;Commande valide&lt;/font&gt;" style="edgeLabel;html=1;align=center;verticalAlign=middle;resizable=0;points=[];" vertex="1" connectable="0" parent="BWkdJpZ7-nc9CG0MHuAF-24">
          <mxGeometry x="-0.0261" y="-2" relative="1" as="geometry">
            <mxPoint as="offset" />
          </mxGeometry>
        </mxCell>
        <mxCell id="BWkdJpZ7-nc9CG0MHuAF-13" value="FIND AND CHECK PATH" style="rounded=0;whiteSpace=wrap;html=1;" vertex="1" parent="1">
          <mxGeometry x="50" y="170" width="150" height="60" as="geometry" />
        </mxCell>
        <mxCell id="BWkdJpZ7-nc9CG0MHuAF-15" value="SET CMD AS NULL" style="rounded=0;whiteSpace=wrap;html=1;" vertex="1" parent="1">
          <mxGeometry x="-100" y="320" width="150" height="60" as="geometry" />
        </mxCell>
        <mxCell id="BWkdJpZ7-nc9CG0MHuAF-16" value="CMD + OPTIONS + ARGUMENTS" style="rounded=0;whiteSpace=wrap;html=1;" vertex="1" parent="1">
          <mxGeometry x="580" y="170" width="150" height="60" as="geometry" />
        </mxCell>
        <mxCell id="BWkdJpZ7-nc9CG0MHuAF-23" value="Ajouter PATH dans la structure" style="rounded=0;whiteSpace=wrap;html=1;" vertex="1" parent="1">
          <mxGeometry x="190" y="320" width="150" height="60" as="geometry" />
        </mxCell>
      </root>
    </mxGraphModel>
  </diagram>
</mxfile>
